<svg xmlns="http://www.w3.org/2000/svg" viewBox="0 0 800 600" width="800" height="600" role="img">
<defs>
<linearGradient id="gWhite" x1="0" y1="0" x2="1" y2="0"><stop offset="0" stop-color="#ffffff"/><stop offset="0.55" stop-color="#eef2f4"/><stop offset="1" stop-color="#c9d2d8"/></linearGradient>
<linearGradient id="gWhiteV" x1="0" y1="0" x2="0" y2="1"><stop offset="0" stop-color="#ffffff"/><stop offset="1" stop-color="#d9e0e4"/></linearGradient>
<linearGradient id="gSteel" x1="0" y1="0" x2="1" y2="0"><stop offset="0" stop-color="#8e999f"/><stop offset="0.28" stop-color="#eef2f4"/><stop offset="0.6" stop-color="#bcc6cb"/><stop offset="1" stop-color="#76828a"/></linearGradient>
<linearGradient id="gSteelV" x1="0" y1="0" x2="0" y2="1"><stop offset="0" stop-color="#f4f7f8"/><stop offset="0.5" stop-color="#c4cdd2"/><stop offset="1" stop-color="#8f9ba2"/></linearGradient>
<linearGradient id="gDark" x1="0" y1="0" x2="1" y2="0"><stop offset="0" stop-color="#12181b"/><stop offset="0.35" stop-color="#3b464c"/><stop offset="0.7" stop-color="#1d2428"/><stop offset="1" stop-color="#0b0f11"/></linearGradient>
<linearGradient id="gDarkV" x1="0" y1="0" x2="0" y2="1"><stop offset="0" stop-color="#3a454b"/><stop offset="1" stop-color="#12181b"/></linearGradient>
<linearGradient id="gGlass" x1="0" y1="0" x2="1" y2="0" gradientTransform="rotate(35)"><stop offset="0" stop-color="#1d7aa8"/><stop offset="1" stop-color="#0b2c4a"/></linearGradient>
<linearGradient id="gSun" x1="0" y1="0" x2="0" y2="1"><stop offset="0" stop-color="#ffd978"/><stop offset="0.42" stop-color="#f58a3c"/><stop offset="0.75" stop-color="#a43a6a"/><stop offset="1" stop-color="#2b2a6e"/></linearGradient>
<linearGradient id="gSolar" x1="0" y1="0" x2="1" y2="0" gradientTransform="rotate(60)"><stop offset="0" stop-color="#1f4aa0"/><stop offset="1" stop-color="#0a1d49"/></linearGradient>
<linearGradient id="gRed" x1="0" y1="0" x2="0" y2="1"><stop offset="0" stop-color="#ef5b45"/><stop offset="1" stop-color="#a5271b"/></linearGradient>
<linearGradient id="gRedH" x1="0" y1="0" x2="1" y2="0"><stop offset="0" stop-color="#8f1f15"/><stop offset="0.4" stop-color="#ec5a44"/><stop offset="1" stop-color="#8f1f15"/></linearGradient>
<linearGradient id="gBlue" x1="0" y1="0" x2="0" y2="1"><stop offset="0" stop-color="#3b86e6"/><stop offset="1" stop-color="#14468f"/></linearGradient>
<linearGradient id="gBlueH" x1="0" y1="0" x2="1" y2="0"><stop offset="0" stop-color="#123f86"/><stop offset="0.4" stop-color="#3f8af0"/><stop offset="1" stop-color="#123f86"/></linearGradient>
<linearGradient id="gGreen" x1="0" y1="0" x2="0" y2="1"><stop offset="0" stop-color="#35b873"/><stop offset="1" stop-color="#17794a"/></linearGradient>
<linearGradient id="gGold" x1="0" y1="0" x2="0" y2="1"><stop offset="0" stop-color="#f8dc86"/><stop offset="0.5" stop-color="#caa044"/><stop offset="1" stop-color="#8d6a1b"/></linearGradient>
<linearGradient id="gOrange" x1="0" y1="0" x2="0" y2="1"><stop offset="0" stop-color="#ffb43c"/><stop offset="1" stop-color="#e07d00"/></linearGradient>
<linearGradient id="gTankBlack" x1="0" y1="0" x2="1" y2="0"><stop offset="0" stop-color="#0b0f11"/><stop offset="0.38" stop-color="#444f55"/><stop offset="0.7" stop-color="#182024"/><stop offset="1" stop-color="#050708"/></linearGradient>
<linearGradient id="gTankBlue" x1="0" y1="0" x2="1" y2="0"><stop offset="0" stop-color="#0d3a7a"/><stop offset="0.38" stop-color="#3d86e4"/><stop offset="0.7" stop-color="#14509f"/><stop offset="1" stop-color="#082a5a"/></linearGradient>
<linearGradient id="gTankGreen" x1="0" y1="0" x2="1" y2="0"><stop offset="0" stop-color="#0f4a2e"/><stop offset="0.38" stop-color="#3fb577"/><stop offset="0.7" stop-color="#15733f"/><stop offset="1" stop-color="#093a22"/></linearGradient>
<linearGradient id="gTankTop" x1="0" y1="0" x2="0" y2="1"><stop offset="0" stop-color="#5a666d"/><stop offset="1" stop-color="#2a3238"/></linearGradient>
<linearGradient id="gSheen" x1="0" y1="0" x2="0" y2="1"><stop offset="0" stop-color="#ffffff" stop-opacity="0.9"/><stop offset="1" stop-color="#ffffff" stop-opacity="0"/></linearGradient>
<linearGradient id="gShadeR" x1="0" y1="0" x2="1" y2="0"><stop offset="0" stop-color="#000" stop-opacity="0"/><stop offset="1" stop-color="#000" stop-opacity="0.2"/></linearGradient>
<linearGradient id="gShadeL" x1="0" y1="0" x2="1" y2="0"><stop offset="0" stop-color="#000" stop-opacity="0.16"/><stop offset="1" stop-color="#000" stop-opacity="0"/></linearGradient>
<radialGradient id="gShadow" cx="0.5" cy="0.5" r="0.5"><stop offset="0" stop-color="#0b2430" stop-opacity="0.38"/><stop offset="1" stop-color="#0b2430" stop-opacity="0"/></radialGradient>
<radialGradient id="gCone" cx="0.5" cy="0.45" r="0.6"><stop offset="0" stop-color="#4b585f"/><stop offset="0.45" stop-color="#1b2226"/><stop offset="1" stop-color="#070a0b"/></radialGradient>
<radialGradient id="gLens" cx="0.4" cy="0.38" r="0.7"><stop offset="0" stop-color="#6fd3ff"/><stop offset="0.35" stop-color="#17426b"/><stop offset="1" stop-color="#050b14"/></radialGradient>
<radialGradient id="gGlow" cx="0.5" cy="0.5" r="0.5"><stop offset="0" stop-color="#3ff0ff" stop-opacity="0.9"/><stop offset="1" stop-color="#3ff0ff" stop-opacity="0"/></radialGradient>
<pattern id="pMesh" width="7" height="7" patternUnits="userSpaceOnUse"><rect width="7" height="7" fill="#1a2125"/><circle cx="3.5" cy="3.5" r="1.8" fill="#4a565d"/></pattern>
<pattern id="pCells" width="40" height="40" patternUnits="userSpaceOnUse"><rect width="40" height="40" fill="none" stroke="#7aa2e8" stroke-width="1.2" stroke-opacity=".55"/></pattern>
<pattern id="pKeys" width="22" height="16" patternUnits="userSpaceOnUse"><rect x="2" y="2" width="18" height="12" rx="2.5" fill="#c4ccd1"/></pattern>
<pattern id="pVent" width="8" height="8" patternUnits="userSpaceOnUse"><rect width="8" height="8" fill="none"/><rect y="2" width="8" height="3" fill="#000" fill-opacity=".22"/></pattern>
</defs>
<defs><linearGradient id="bgGrad" x1="0" y1="0" x2="0" y2="1"><stop offset="0" stop-color="#DCEAF7"/><stop offset="1" stop-color="#BBD4EE"/></linearGradient></defs>
<rect width="800" height="600" fill="url(#bgGrad)"/>
<ellipse cx="400" cy="548" rx="420" ry="46" fill="#fff" opacity="0.5"/>
<ellipse cx="400" cy="505" rx="300" ry="14" fill="url(#gShadow)"/><rect x="160" y="462" width="440" height="22" rx="6" fill="url(#gDarkV)"/><path d="M470 150 Q470 110 540 110 Q610 110 610 150 L610 440 Q610 470 540 470 Q470 470 470 440 Z" fill="url(#gBlueH)"/><rect x="522" y="78" width="36" height="38" rx="5" fill="url(#gSteelV)"/><rect x="480" y="130" width="30" height="320" rx="12" fill="url(#gSheen)" opacity="0.45"/><rect x="170" y="300" width="260" height="150" rx="22" fill="url(#gGreen)"/><rect x="215" y="308" width="8" height="134" rx="4" fill="#000" opacity="0.14"/><rect x="243" y="308" width="8" height="134" rx="4" fill="#000" opacity="0.14"/><rect x="271" y="308" width="8" height="134" rx="4" fill="#000" opacity="0.14"/><rect x="299" y="308" width="8" height="134" rx="4" fill="#000" opacity="0.14"/><rect x="327" y="308" width="8" height="134" rx="4" fill="#000" opacity="0.14"/><rect x="355" y="308" width="8" height="134" rx="4" fill="#000" opacity="0.14"/><rect x="383" y="308" width="8" height="134" rx="4" fill="#000" opacity="0.14"/><rect x="430" y="340" width="60" height="70" rx="8" fill="url(#gSteel)"/><rect x="260" y="262" width="110" height="44" rx="8" fill="url(#gDarkV)"/><circle cx="315" cy="220" r="52" fill="url(#gSteel)"/><circle cx="315" cy="220" r="42" fill="#fff"/><line x1="287.49" y1="239.98" x2="282.64" y2="243.51" fill="none" stroke="#3b464c" stroke-width="2"/><line x1="281.1" y1="222.67" x2="275.12" y2="223.14" fill="none" stroke="#3b464c" stroke-width="2"/><line x1="284.71" y1="204.56" x2="279.36" y2="201.84" fill="none" stroke="#3b464c" stroke-width="2"/><line x1="297.24" y1="191.01" x2="294.1" y2="185.89" fill="none" stroke="#3b464c" stroke-width="2"/><line x1="315" y1="186" x2="315" y2="180" fill="none" stroke="#3b464c" stroke-width="2"/><line x1="332.76" y1="191.01" x2="335.9" y2="185.89" fill="none" stroke="#3b464c" stroke-width="2"/><line x1="345.29" y1="204.56" x2="350.64" y2="201.84" fill="none" stroke="#3b464c" stroke-width="2"/><line x1="348.9" y1="222.67" x2="354.88" y2="223.14" fill="none" stroke="#3b464c" stroke-width="2"/><line x1="342.51" y1="239.98" x2="347.36" y2="243.51" fill="none" stroke="#3b464c" stroke-width="2"/><line x1="315" y1="220" x2="336" y2="196" fill="none" stroke="#e5173f" stroke-width="3" stroke-linecap="round"/><circle cx="315" cy="220" r="5" fill="#2a343a"/><text x="315" y="245" font-family="Arial, Helvetica, sans-serif" font-weight="700" font-size="9" text-anchor="middle" fill="#3b464c">BAR</text><rect x="150" y="360" width="30" height="40" rx="5" fill="url(#gSteel)"/>
</svg>