<svg xmlns="http://www.w3.org/2000/svg" viewBox="0 0 800 600" width="800" height="600" role="img">
<defs>
<linearGradient id="gWhite" x1="0" y1="0" x2="1" y2="0"><stop offset="0" stop-color="#ffffff"/><stop offset="0.55" stop-color="#eef2f4"/><stop offset="1" stop-color="#c9d2d8"/></linearGradient>
<linearGradient id="gWhiteV" x1="0" y1="0" x2="0" y2="1"><stop offset="0" stop-color="#ffffff"/><stop offset="1" stop-color="#d9e0e4"/></linearGradient>
<linearGradient id="gSteel" x1="0" y1="0" x2="1" y2="0"><stop offset="0" stop-color="#8e999f"/><stop offset="0.28" stop-color="#eef2f4"/><stop offset="0.6" stop-color="#bcc6cb"/><stop offset="1" stop-color="#76828a"/></linearGradient>
<linearGradient id="gSteelV" x1="0" y1="0" x2="0" y2="1"><stop offset="0" stop-color="#f4f7f8"/><stop offset="0.5" stop-color="#c4cdd2"/><stop offset="1" stop-color="#8f9ba2"/></linearGradient>
<linearGradient id="gDark" x1="0" y1="0" x2="1" y2="0"><stop offset="0" stop-color="#12181b"/><stop offset="0.35" stop-color="#3b464c"/><stop offset="0.7" stop-color="#1d2428"/><stop offset="1" stop-color="#0b0f11"/></linearGradient>
<linearGradient id="gDarkV" x1="0" y1="0" x2="0" y2="1"><stop offset="0" stop-color="#3a454b"/><stop offset="1" stop-color="#12181b"/></linearGradient>
<linearGradient id="gGlass" x1="0" y1="0" x2="1" y2="0" gradientTransform="rotate(35)"><stop offset="0" stop-color="#1d7aa8"/><stop offset="1" stop-color="#0b2c4a"/></linearGradient>
<linearGradient id="gSun" x1="0" y1="0" x2="0" y2="1"><stop offset="0" stop-color="#ffd978"/><stop offset="0.42" stop-color="#f58a3c"/><stop offset="0.75" stop-color="#a43a6a"/><stop offset="1" stop-color="#2b2a6e"/></linearGradient>
<linearGradient id="gSolar" x1="0" y1="0" x2="1" y2="0" gradientTransform="rotate(60)"><stop offset="0" stop-color="#1f4aa0"/><stop offset="1" stop-color="#0a1d49"/></linearGradient>
<linearGradient id="gRed" x1="0" y1="0" x2="0" y2="1"><stop offset="0" stop-color="#ef5b45"/><stop offset="1" stop-color="#a5271b"/></linearGradient>
<linearGradient id="gRedH" x1="0" y1="0" x2="1" y2="0"><stop offset="0" stop-color="#8f1f15"/><stop offset="0.4" stop-color="#ec5a44"/><stop offset="1" stop-color="#8f1f15"/></linearGradient>
<linearGradient id="gBlue" x1="0" y1="0" x2="0" y2="1"><stop offset="0" stop-color="#3b86e6"/><stop offset="1" stop-color="#14468f"/></linearGradient>
<linearGradient id="gBlueH" x1="0" y1="0" x2="1" y2="0"><stop offset="0" stop-color="#123f86"/><stop offset="0.4" stop-color="#3f8af0"/><stop offset="1" stop-color="#123f86"/></linearGradient>
<linearGradient id="gGreen" x1="0" y1="0" x2="0" y2="1"><stop offset="0" stop-color="#35b873"/><stop offset="1" stop-color="#17794a"/></linearGradient>
<linearGradient id="gGold" x1="0" y1="0" x2="0" y2="1"><stop offset="0" stop-color="#f8dc86"/><stop offset="0.5" stop-color="#caa044"/><stop offset="1" stop-color="#8d6a1b"/></linearGradient>
<linearGradient id="gOrange" x1="0" y1="0" x2="0" y2="1"><stop offset="0" stop-color="#ffb43c"/><stop offset="1" stop-color="#e07d00"/></linearGradient>
<linearGradient id="gTankBlack" x1="0" y1="0" x2="1" y2="0"><stop offset="0" stop-color="#0b0f11"/><stop offset="0.38" stop-color="#444f55"/><stop offset="0.7" stop-color="#182024"/><stop offset="1" stop-color="#050708"/></linearGradient>
<linearGradient id="gTankBlue" x1="0" y1="0" x2="1" y2="0"><stop offset="0" stop-color="#0d3a7a"/><stop offset="0.38" stop-color="#3d86e4"/><stop offset="0.7" stop-color="#14509f"/><stop offset="1" stop-color="#082a5a"/></linearGradient>
<linearGradient id="gTankGreen" x1="0" y1="0" x2="1" y2="0"><stop offset="0" stop-color="#0f4a2e"/><stop offset="0.38" stop-color="#3fb577"/><stop offset="0.7" stop-color="#15733f"/><stop offset="1" stop-color="#093a22"/></linearGradient>
<linearGradient id="gTankTop" x1="0" y1="0" x2="0" y2="1"><stop offset="0" stop-color="#5a666d"/><stop offset="1" stop-color="#2a3238"/></linearGradient>
<linearGradient id="gSheen" x1="0" y1="0" x2="0" y2="1"><stop offset="0" stop-color="#ffffff" stop-opacity="0.9"/><stop offset="1" stop-color="#ffffff" stop-opacity="0"/></linearGradient>
<linearGradient id="gShadeR" x1="0" y1="0" x2="1" y2="0"><stop offset="0" stop-color="#000" stop-opacity="0"/><stop offset="1" stop-color="#000" stop-opacity="0.2"/></linearGradient>
<linearGradient id="gShadeL" x1="0" y1="0" x2="1" y2="0"><stop offset="0" stop-color="#000" stop-opacity="0.16"/><stop offset="1" stop-color="#000" stop-opacity="0"/></linearGradient>
<radialGradient id="gShadow" cx="0.5" cy="0.5" r="0.5"><stop offset="0" stop-color="#0b2430" stop-opacity="0.38"/><stop offset="1" stop-color="#0b2430" stop-opacity="0"/></radialGradient>
<radialGradient id="gCone" cx="0.5" cy="0.45" r="0.6"><stop offset="0" stop-color="#4b585f"/><stop offset="0.45" stop-color="#1b2226"/><stop offset="1" stop-color="#070a0b"/></radialGradient>
<radialGradient id="gLens" cx="0.4" cy="0.38" r="0.7"><stop offset="0" stop-color="#6fd3ff"/><stop offset="0.35" stop-color="#17426b"/><stop offset="1" stop-color="#050b14"/></radialGradient>
<radialGradient id="gGlow" cx="0.5" cy="0.5" r="0.5"><stop offset="0" stop-color="#3ff0ff" stop-opacity="0.9"/><stop offset="1" stop-color="#3ff0ff" stop-opacity="0"/></radialGradient>
<pattern id="pMesh" width="7" height="7" patternUnits="userSpaceOnUse"><rect width="7" height="7" fill="#1a2125"/><circle cx="3.5" cy="3.5" r="1.8" fill="#4a565d"/></pattern>
<pattern id="pCells" width="40" height="40" patternUnits="userSpaceOnUse"><rect width="40" height="40" fill="none" stroke="#7aa2e8" stroke-width="1.2" stroke-opacity=".55"/></pattern>
<pattern id="pKeys" width="22" height="16" patternUnits="userSpaceOnUse"><rect x="2" y="2" width="18" height="12" rx="2.5" fill="#c4ccd1"/></pattern>
<pattern id="pVent" width="8" height="8" patternUnits="userSpaceOnUse"><rect width="8" height="8" fill="none"/><rect y="2" width="8" height="3" fill="#000" fill-opacity=".22"/></pattern>
</defs>
<defs><linearGradient id="bgGrad" x1="0" y1="0" x2="0" y2="1"><stop offset="0" stop-color="#16313a"/><stop offset="1" stop-color="#0b1c23"/></linearGradient></defs>
<rect width="800" height="600" fill="url(#bgGrad)"/>

<g transform="translate(-458 -261) scale(2.2)"><ellipse cx="400" cy="530" rx="330" ry="14" fill="url(#gShadow)"/><rect x="90" y="215" width="620" height="78" rx="20" fill="url(#gDark)"/><rect x="104" y="225" width="592" height="58" rx="12" fill="url(#pMesh)"/><rect x="104" y="225" width="592" height="58" rx="12" fill="url(#gShadeL)"/><circle cx="382" cy="286" r="3" fill="#3fe0ff"/><circle cx="400" cy="286" r="3" fill="#3fe0ff"/><circle cx="418" cy="286" r="3" fill="#ffffff" opacity="0.5"/><rect x="96" y="218" width="608" height="22" rx="16" fill="url(#gSheen)" opacity="0.3"/><rect x="545" y="340" width="150" height="176" rx="14" fill="url(#gDark)"/><polygon points="695,340 725,326 725,496 695,516" fill="#0e1417"/><circle cx="620" cy="440" r="58" fill="#10171a"/><circle cx="620" cy="440" r="50" fill="url(#gCone)"/><circle cx="620" cy="440" r="16" fill="#2a3338"/><rect x="585" y="360" width="70" height="8" rx="4" fill="#5d6a71"/><rect x="552" y="346" width="136" height="30" rx="10" fill="url(#gSheen)" opacity="0.25"/><g transform="translate(190 430) rotate(-14)"><rect x="-20" y="-80" width="40" height="160" rx="14" fill="url(#gDarkV)"/><circle cx="0" cy="-52" r="7" fill="#e5173f"/><circle cx="0" cy="-20" r="14" fill="#2a343a" stroke="#566269" stroke-width="2"/><circle cx="-9" cy="30" r="5" fill="#8d999f"/><circle cx="9" cy="30" r="5" fill="#8d999f"/><circle cx="-9" cy="50" r="5" fill="#8d999f"/><circle cx="9" cy="50" r="5" fill="#8d999f"/></g></g>
</svg>