<svg xmlns="http://www.w3.org/2000/svg" viewBox="0 0 800 600" width="800" height="600" role="img">
<defs>
<linearGradient id="gWhite" x1="0" y1="0" x2="1" y2="0"><stop offset="0" stop-color="#ffffff"/><stop offset="0.55" stop-color="#eef2f4"/><stop offset="1" stop-color="#c9d2d8"/></linearGradient>
<linearGradient id="gWhiteV" x1="0" y1="0" x2="0" y2="1"><stop offset="0" stop-color="#ffffff"/><stop offset="1" stop-color="#d9e0e4"/></linearGradient>
<linearGradient id="gSteel" x1="0" y1="0" x2="1" y2="0"><stop offset="0" stop-color="#8e999f"/><stop offset="0.28" stop-color="#eef2f4"/><stop offset="0.6" stop-color="#bcc6cb"/><stop offset="1" stop-color="#76828a"/></linearGradient>
<linearGradient id="gSteelV" x1="0" y1="0" x2="0" y2="1"><stop offset="0" stop-color="#f4f7f8"/><stop offset="0.5" stop-color="#c4cdd2"/><stop offset="1" stop-color="#8f9ba2"/></linearGradient>
<linearGradient id="gDark" x1="0" y1="0" x2="1" y2="0"><stop offset="0" stop-color="#12181b"/><stop offset="0.35" stop-color="#3b464c"/><stop offset="0.7" stop-color="#1d2428"/><stop offset="1" stop-color="#0b0f11"/></linearGradient>
<linearGradient id="gDarkV" x1="0" y1="0" x2="0" y2="1"><stop offset="0" stop-color="#3a454b"/><stop offset="1" stop-color="#12181b"/></linearGradient>
<linearGradient id="gGlass" x1="0" y1="0" x2="1" y2="0" gradientTransform="rotate(35)"><stop offset="0" stop-color="#1d7aa8"/><stop offset="1" stop-color="#0b2c4a"/></linearGradient>
<linearGradient id="gSun" x1="0" y1="0" x2="0" y2="1"><stop offset="0" stop-color="#ffd978"/><stop offset="0.42" stop-color="#f58a3c"/><stop offset="0.75" stop-color="#a43a6a"/><stop offset="1" stop-color="#2b2a6e"/></linearGradient>
<linearGradient id="gSolar" x1="0" y1="0" x2="1" y2="0" gradientTransform="rotate(60)"><stop offset="0" stop-color="#1f4aa0"/><stop offset="1" stop-color="#0a1d49"/></linearGradient>
<linearGradient id="gRed" x1="0" y1="0" x2="0" y2="1"><stop offset="0" stop-color="#ef5b45"/><stop offset="1" stop-color="#a5271b"/></linearGradient>
<linearGradient id="gRedH" x1="0" y1="0" x2="1" y2="0"><stop offset="0" stop-color="#8f1f15"/><stop offset="0.4" stop-color="#ec5a44"/><stop offset="1" stop-color="#8f1f15"/></linearGradient>
<linearGradient id="gBlue" x1="0" y1="0" x2="0" y2="1"><stop offset="0" stop-color="#3b86e6"/><stop offset="1" stop-color="#14468f"/></linearGradient>
<linearGradient id="gBlueH" x1="0" y1="0" x2="1" y2="0"><stop offset="0" stop-color="#123f86"/><stop offset="0.4" stop-color="#3f8af0"/><stop offset="1" stop-color="#123f86"/></linearGradient>
<linearGradient id="gGreen" x1="0" y1="0" x2="0" y2="1"><stop offset="0" stop-color="#35b873"/><stop offset="1" stop-color="#17794a"/></linearGradient>
<linearGradient id="gGold" x1="0" y1="0" x2="0" y2="1"><stop offset="0" stop-color="#f8dc86"/><stop offset="0.5" stop-color="#caa044"/><stop offset="1" stop-color="#8d6a1b"/></linearGradient>
<linearGradient id="gOrange" x1="0" y1="0" x2="0" y2="1"><stop offset="0" stop-color="#ffb43c"/><stop offset="1" stop-color="#e07d00"/></linearGradient>
<linearGradient id="gTankBlack" x1="0" y1="0" x2="1" y2="0"><stop offset="0" stop-color="#0b0f11"/><stop offset="0.38" stop-color="#444f55"/><stop offset="0.7" stop-color="#182024"/><stop offset="1" stop-color="#050708"/></linearGradient>
<linearGradient id="gTankBlue" x1="0" y1="0" x2="1" y2="0"><stop offset="0" stop-color="#0d3a7a"/><stop offset="0.38" stop-color="#3d86e4"/><stop offset="0.7" stop-color="#14509f"/><stop offset="1" stop-color="#082a5a"/></linearGradient>
<linearGradient id="gTankGreen" x1="0" y1="0" x2="1" y2="0"><stop offset="0" stop-color="#0f4a2e"/><stop offset="0.38" stop-color="#3fb577"/><stop offset="0.7" stop-color="#15733f"/><stop offset="1" stop-color="#093a22"/></linearGradient>
<linearGradient id="gTankTop" x1="0" y1="0" x2="0" y2="1"><stop offset="0" stop-color="#5a666d"/><stop offset="1" stop-color="#2a3238"/></linearGradient>
<linearGradient id="gSheen" x1="0" y1="0" x2="0" y2="1"><stop offset="0" stop-color="#ffffff" stop-opacity="0.9"/><stop offset="1" stop-color="#ffffff" stop-opacity="0"/></linearGradient>
<linearGradient id="gShadeR" x1="0" y1="0" x2="1" y2="0"><stop offset="0" stop-color="#000" stop-opacity="0"/><stop offset="1" stop-color="#000" stop-opacity="0.2"/></linearGradient>
<linearGradient id="gShadeL" x1="0" y1="0" x2="1" y2="0"><stop offset="0" stop-color="#000" stop-opacity="0.16"/><stop offset="1" stop-color="#000" stop-opacity="0"/></linearGradient>
<radialGradient id="gShadow" cx="0.5" cy="0.5" r="0.5"><stop offset="0" stop-color="#0b2430" stop-opacity="0.38"/><stop offset="1" stop-color="#0b2430" stop-opacity="0"/></radialGradient>
<radialGradient id="gCone" cx="0.5" cy="0.45" r="0.6"><stop offset="0" stop-color="#4b585f"/><stop offset="0.45" stop-color="#1b2226"/><stop offset="1" stop-color="#070a0b"/></radialGradient>
<radialGradient id="gLens" cx="0.4" cy="0.38" r="0.7"><stop offset="0" stop-color="#6fd3ff"/><stop offset="0.35" stop-color="#17426b"/><stop offset="1" stop-color="#050b14"/></radialGradient>
<radialGradient id="gGlow" cx="0.5" cy="0.5" r="0.5"><stop offset="0" stop-color="#3ff0ff" stop-opacity="0.9"/><stop offset="1" stop-color="#3ff0ff" stop-opacity="0"/></radialGradient>
<pattern id="pMesh" width="7" height="7" patternUnits="userSpaceOnUse"><rect width="7" height="7" fill="#1a2125"/><circle cx="3.5" cy="3.5" r="1.8" fill="#4a565d"/></pattern>
<pattern id="pCells" width="40" height="40" patternUnits="userSpaceOnUse"><rect width="40" height="40" fill="none" stroke="#7aa2e8" stroke-width="1.2" stroke-opacity=".55"/></pattern>
<pattern id="pKeys" width="22" height="16" patternUnits="userSpaceOnUse"><rect x="2" y="2" width="18" height="12" rx="2.5" fill="#c4ccd1"/></pattern>
<pattern id="pVent" width="8" height="8" patternUnits="userSpaceOnUse"><rect width="8" height="8" fill="none"/><rect y="2" width="8" height="3" fill="#000" fill-opacity=".22"/></pattern>
</defs>
<defs><linearGradient id="bgGrad" x1="0" y1="0" x2="0" y2="1"><stop offset="0" stop-color="#ECEFE3"/><stop offset="1" stop-color="#D8DFC4"/></linearGradient></defs>
<rect width="800" height="600" fill="url(#bgGrad)"/>
<ellipse cx="400" cy="548" rx="420" ry="46" fill="#fff" opacity="0.5"/>
<ellipse cx="400" cy="530" rx="260" ry="12" fill="url(#gShadow)"/><rect x="70" y="70" width="660" height="460" fill="#e7ecee"/><rect x="70" y="70" width="660" height="460" fill="url(#gShadeL)"/><line x1="70" y1="130" x2="730" y2="130" fill="none" stroke="#d4dbde" stroke-width="1.5"/><line x1="70" y1="225" x2="730" y2="225" fill="none" stroke="#d4dbde" stroke-width="1.5"/><line x1="70" y1="320" x2="730" y2="320" fill="none" stroke="#d4dbde" stroke-width="1.5"/><line x1="70" y1="415" x2="730" y2="415" fill="none" stroke="#d4dbde" stroke-width="1.5"/><line x1="70" y1="510" x2="730" y2="510" fill="none" stroke="#d4dbde" stroke-width="1.5"/><rect x="330" y="120" width="140" height="380" rx="8" fill="url(#gDarkV)"/><circle cx="360" cy="150" r="9" fill="#8d99a0"/><circle cx="360" cy="150" r="3.5" fill="#3b464c"/><circle cx="440" cy="150" r="9" fill="#8d99a0"/><circle cx="440" cy="150" r="3.5" fill="#3b464c"/><circle cx="360" cy="470" r="9" fill="#8d99a0"/><circle cx="360" cy="470" r="3.5" fill="#3b464c"/><circle cx="440" cy="470" r="9" fill="#8d99a0"/><circle cx="440" cy="470" r="3.5" fill="#3b464c"/><rect x="210" y="240" width="380" height="26" rx="6" fill="url(#gSteelV)"/><rect x="210" y="360" width="380" height="26" rx="6" fill="url(#gSteelV)"/><rect x="210" y="240" width="22" height="146" rx="6" fill="url(#gSteel)"/><rect x="568" y="240" width="22" height="146" rx="6" fill="url(#gSteel)"/><rect x="385" y="266" width="30" height="94" rx="4" fill="url(#gSteel)"/><circle cx="221" cy="262" r="6" fill="#4a565d"/><circle cx="579" cy="262" r="6" fill="#4a565d"/><circle cx="221" cy="364" r="6" fill="#4a565d"/><circle cx="579" cy="364" r="6" fill="#4a565d"/><circle cx="400" cy="313" r="14" fill="#e5173f"/><circle cx="400" cy="313" r="5" fill="#fff"/>
</svg>